<mxfile host="65bd71144e">
    <diagram id="Q8V8eofXSo2n6V-auhX3" name="Page-1">
        <mxGraphModel dx="727" dy="635" grid="1" gridSize="10" guides="1" tooltips="1" connect="1" arrows="1" fold="1" page="1" pageScale="1" pageWidth="850" pageHeight="1100" math="0" shadow="0">
            <root>
                <mxCell id="0"/>
                <mxCell id="1" parent="0"/>
                <mxCell id="3" style="edgeStyle=orthogonalEdgeStyle;rounded=0;orthogonalLoop=1;jettySize=auto;html=1;entryX=0.5;entryY=0;entryDx=0;entryDy=0;" edge="1" parent="1" source="2" target="4">
                    <mxGeometry relative="1" as="geometry">
                        <mxPoint x="433" y="490" as="targetPoint"/>
                    </mxGeometry>
                </mxCell>
                <mxCell id="6" style="edgeStyle=orthogonalEdgeStyle;rounded=0;orthogonalLoop=1;jettySize=auto;html=1;" edge="1" parent="1" source="2">
                    <mxGeometry relative="1" as="geometry">
                        <mxPoint x="533" y="360" as="targetPoint"/>
                    </mxGeometry>
                </mxCell>
                <mxCell id="10" style="edgeStyle=orthogonalEdgeStyle;rounded=0;orthogonalLoop=1;jettySize=auto;html=1;" edge="1" parent="1" source="2">
                    <mxGeometry relative="1" as="geometry">
                        <mxPoint x="433" y="260" as="targetPoint"/>
                    </mxGeometry>
                </mxCell>
                <mxCell id="12" style="edgeStyle=orthogonalEdgeStyle;rounded=0;orthogonalLoop=1;jettySize=auto;html=1;entryX=1;entryY=0.5;entryDx=0;entryDy=0;" edge="1" parent="1" source="2" target="13">
                    <mxGeometry relative="1" as="geometry">
                        <mxPoint x="300" y="360" as="targetPoint"/>
                    </mxGeometry>
                </mxCell>
                <mxCell id="15" style="edgeStyle=orthogonalEdgeStyle;rounded=0;orthogonalLoop=1;jettySize=auto;html=1;entryX=1;entryY=0.5;entryDx=0;entryDy=0;" edge="1" parent="1" source="2" target="16">
                    <mxGeometry relative="1" as="geometry">
                        <mxPoint x="290" y="360" as="targetPoint"/>
                    </mxGeometry>
                </mxCell>
                <mxCell id="2" value="Usuario" style="whiteSpace=wrap;html=1;" vertex="1" parent="1">
                    <mxGeometry x="373" y="330" width="120" height="60" as="geometry"/>
                </mxCell>
                <mxCell id="22" style="edgeStyle=orthogonalEdgeStyle;rounded=0;orthogonalLoop=1;jettySize=auto;html=1;" edge="1" parent="1" source="4" target="23">
                    <mxGeometry relative="1" as="geometry">
                        <mxPoint x="433" y="710.0000000000002" as="targetPoint"/>
                    </mxGeometry>
                </mxCell>
                <mxCell id="24" style="edgeStyle=orthogonalEdgeStyle;rounded=0;orthogonalLoop=1;jettySize=auto;html=1;" edge="1" parent="1" source="4" target="25">
                    <mxGeometry relative="1" as="geometry">
                        <mxPoint x="560" y="580" as="targetPoint"/>
                    </mxGeometry>
                </mxCell>
                <mxCell id="4" value="Proyecto" style="whiteSpace=wrap;html=1;" vertex="1" parent="1">
                    <mxGeometry x="373" y="550" width="120" height="60" as="geometry"/>
                </mxCell>
                <mxCell id="5" value="1:n" style="text;html=1;resizable=0;autosize=1;align=center;verticalAlign=middle;points=[];fillColor=none;strokeColor=none;rounded=0;" vertex="1" parent="1">
                    <mxGeometry x="443" y="430" width="30" height="20" as="geometry"/>
                </mxCell>
                <mxCell id="9" value="Id" style="ellipse;whiteSpace=wrap;html=1;" vertex="1" parent="1">
                    <mxGeometry x="533" y="340" width="85" height="40" as="geometry"/>
                </mxCell>
                <mxCell id="11" value="Name" style="ellipse;whiteSpace=wrap;html=1;" vertex="1" parent="1">
                    <mxGeometry x="377" y="220" width="112" height="40" as="geometry"/>
                </mxCell>
                <mxCell id="13" value="País" style="ellipse;whiteSpace=wrap;html=1;" vertex="1" parent="1">
                    <mxGeometry x="160" y="220" width="120" height="40" as="geometry"/>
                </mxCell>
                <mxCell id="17" style="edgeStyle=orthogonalEdgeStyle;rounded=0;orthogonalLoop=1;jettySize=auto;html=1;" edge="1" parent="1" source="16" target="19">
                    <mxGeometry relative="1" as="geometry">
                        <mxPoint x="220" y="440" as="targetPoint"/>
                    </mxGeometry>
                </mxCell>
                <mxCell id="21" style="edgeStyle=orthogonalEdgeStyle;rounded=0;orthogonalLoop=1;jettySize=auto;html=1;" edge="1" parent="1" source="16" target="20">
                    <mxGeometry relative="1" as="geometry"/>
                </mxCell>
                <mxCell id="16" value="Datos contacto" style="ellipse;shape=doubleEllipse;margin=3;whiteSpace=wrap;html=1;align=center;" vertex="1" parent="1">
                    <mxGeometry x="170" y="340" width="100" height="40" as="geometry"/>
                </mxCell>
                <mxCell id="19" value="Teléfono" style="ellipse;whiteSpace=wrap;html=1;align=center;" vertex="1" parent="1">
                    <mxGeometry x="110" y="440" width="100" height="40" as="geometry"/>
                </mxCell>
                <mxCell id="20" value="Correo" style="ellipse;whiteSpace=wrap;html=1;align=center;" vertex="1" parent="1">
                    <mxGeometry x="240" y="440" width="100" height="40" as="geometry"/>
                </mxCell>
                <mxCell id="23" value="Descripción" style="ellipse;whiteSpace=wrap;html=1;align=center;" vertex="1" parent="1">
                    <mxGeometry x="383" y="690.0000000000002" width="100" height="40" as="geometry"/>
                </mxCell>
                <mxCell id="25" value="Presupuesto" style="ellipse;whiteSpace=wrap;html=1;align=center;" vertex="1" parent="1">
                    <mxGeometry x="510" y="560" width="100" height="40" as="geometry"/>
                </mxCell>
            </root>
        </mxGraphModel>
    </diagram>
</mxfile>